# xmcd CD database file
#
# Track frame offsets:
#	150
#	19310
#	34322
#	52425
#	71685
#	85747
#	100327
#	116615
#	131045
#	147450
#	160202
#	177337
#	194100
#	208767
#	223837
#	241507
#	258657
#	276910
#
# Disc length: 3926 seconds
#
# Revision: 1
# Processed by: cddbd v1.4PL0 Copyright (c) Steve Scherf et al.
# Submitted via: CDex 1.50
#
DISCID=260f5412
DTITLE=Bellamy Brothers - Redneck Girls Forever
DYEAR=2002
DGENRE=Country
TTITLE0=Let's Roll America
TTITLE1=Redneck Girl
TTITLE2=Blue Rodeo
TTITLE3=What I Used To Do All Night
TTITLE4=The Andy Griffth Show
TTITLE5=Over The Line
TTITLE6=Crazy Old World
TTITLE7=Passions Thunder
TTITLE8=The Vertical Expression (Of Horzontal Desire)
TTITLE9=Like She's Not Yours
TTITLE10=Afterglow
TTITLE11=Slow Hurry
TTITLE12=Bubba
TTITLE13=Can I Come Home To You
TTITLE14=She's Awesome
TTITLE15=She's Gone With The Wind
TTITLE16=Our Family
TTITLE17=Come Back Gene And Roy
EXTD=YEAR: 2002
EXTT0=
EXTT1=
EXTT2=
EXTT3=
EXTT4=
EXTT5=
EXTT6=
EXTT7=
EXTT8=
EXTT9=
EXTT10=
EXTT11=
EXTT12=
EXTT13=
EXTT14=
EXTT15=
EXTT16=
EXTT17=
PLAYORDER=
